<svg width="24" height="24" viewBox="0 0 24 24" fill="none" xmlns="http://www.w3.org/2000/svg">
<path fill-rule="evenodd" clip-rule="evenodd" d="M9.76502 2.998C10.0464 2.68374 10.3909 2.43236 10.776 2.26025C11.1611 2.08815 11.5782 1.99919 12 1.99919C12.4218 1.99919 12.8389 2.08815 13.224 2.26025C13.6092 2.43236 13.9536 2.68374 14.235 2.998L14.935 3.78C15.0351 3.8919 15.159 3.97986 15.2977 4.03733C15.4363 4.0948 15.5862 4.12032 15.736 4.112L16.786 4.054C17.2071 4.03087 17.6283 4.09677 18.0221 4.2474C18.416 4.39802 18.7737 4.62999 19.0719 4.92816C19.37 5.22634 19.602 5.58403 19.7526 5.97789C19.9032 6.37175 19.9691 6.79295 19.946 7.214L19.888 8.264C19.8799 8.4137 19.9054 8.56333 19.9629 8.70181C20.0204 8.84029 20.1083 8.96407 20.22 9.064L21.003 9.764C21.3174 10.0454 21.569 10.3899 21.7412 10.7751C21.9134 11.1603 22.0024 11.5776 22.0024 11.9995C22.0024 12.4214 21.9134 12.8386 21.7412 13.2239C21.569 13.6091 21.3174 13.9536 21.003 14.235L20.22 14.935C20.1081 15.035 20.0202 15.159 19.9627 15.2976C19.9052 15.4363 19.8797 15.5861 19.888 15.736L19.946 16.786C19.9691 17.207 19.9032 17.6282 19.7526 18.0221C19.602 18.416 19.37 18.7737 19.0719 19.0718C18.7737 19.37 18.416 19.602 18.0221 19.7526C17.6283 19.9032 17.2071 19.9691 16.786 19.946L15.736 19.888C15.5863 19.8798 15.4367 19.9054 15.2982 19.9629C15.1597 20.0204 15.036 20.1082 14.936 20.22L14.236 21.003C13.9546 21.3174 13.6101 21.5689 13.2249 21.7411C12.8397 21.9134 12.4225 22.0024 12.0005 22.0024C11.5786 22.0024 11.1614 21.9134 10.7762 21.7411C10.391 21.5689 10.0464 21.3174 9.76502 21.003L9.06502 20.22C8.96499 20.1081 8.84104 20.0201 8.70238 19.9627C8.56372 19.9052 8.41389 19.8797 8.26402 19.888L7.21402 19.946C6.79297 19.9691 6.37178 19.9032 5.97791 19.7526C5.58405 19.602 5.22636 19.37 4.92819 19.0718C4.63001 18.7737 4.39805 18.416 4.24742 18.0221C4.0968 17.6282 4.0309 17.207 4.05402 16.786L4.11202 15.736C4.12019 15.5863 4.0946 15.4367 4.03713 15.2982C3.97966 15.1597 3.89179 15.0359 3.78002 14.936L2.99802 14.236C2.6836 13.9546 2.43208 13.6101 2.25987 13.2249C2.08767 12.8396 1.99866 12.4224 1.99866 12.0005C1.99866 11.5786 2.08767 11.1613 2.25987 10.7761C2.43208 10.3909 2.6836 10.0464 2.99802 9.765L3.78002 9.065C3.89193 8.96496 3.97988 8.84102 4.03735 8.70235C4.09483 8.56369 4.12035 8.41387 4.11202 8.264L4.05402 7.214C4.0309 6.79295 4.0968 6.37175 4.24742 5.97789C4.39805 5.58403 4.63001 5.22634 4.92819 4.92816C5.22636 4.62999 5.58405 4.39802 5.97791 4.2474C6.37178 4.09677 6.79297 4.03087 7.21402 4.054L8.26402 4.112C8.41373 4.12017 8.56335 4.09457 8.70183 4.03711C8.84031 3.97964 8.96409 3.89177 9.06402 3.78L9.76402 2.998H9.76502ZM15.707 8.293C15.8945 8.48053 15.9998 8.73483 15.9998 9C15.9998 9.26516 15.8945 9.51947 15.707 9.707L9.70702 15.707C9.51842 15.8892 9.26582 15.99 9.00362 15.9877C8.74142 15.9854 8.49061 15.8802 8.3052 15.6948C8.1198 15.5094 8.01463 15.2586 8.01235 14.9964C8.01007 14.7342 8.11086 14.4816 8.29302 14.293L14.293 8.293C14.4805 8.10553 14.7349 8.00021 15 8.00021C15.2652 8.00021 15.5195 8.10553 15.707 8.293ZM9.50002 8C9.1022 8 8.72067 8.15803 8.43936 8.43934C8.15806 8.72064 8.00002 9.10217 8.00002 9.5V9.51C8.00002 9.90782 8.15806 10.2894 8.43936 10.5707C8.72067 10.852 9.1022 11.01 9.50002 11.01H9.51002C9.90785 11.01 10.2894 10.852 10.5707 10.5707C10.852 10.2894 11.01 9.90782 11.01 9.51V9.5C11.01 9.10217 10.852 8.72064 10.5707 8.43934C10.2894 8.15803 9.90785 8 9.51002 8H9.50002ZM14.5 13C14.1022 13 13.7207 13.158 13.4394 13.4393C13.1581 13.7206 13 14.1022 13 14.5V14.51C13 14.9078 13.1581 15.2894 13.4394 15.5707C13.7207 15.852 14.1022 16.01 14.5 16.01H14.51C14.9078 16.01 15.2894 15.852 15.5707 15.5707C15.852 15.2894 16.01 14.9078 16.01 14.51V14.5C16.01 14.1022 15.852 13.7206 15.5707 13.4393C15.2894 13.158 14.9078 13 14.51 13H14.5Z" fill="white"/>
</svg>
